<?xml version="1.0" encoding="UTF-8"?>
<svg width="2px" height="9px" viewBox="0 0 2 9" version="1.1" xmlns="http://www.w3.org/2000/svg" xmlns:xlink="http://www.w3.org/1999/xlink">
    <!-- Generator: sketchtool 58 (101010) - https://sketch.com -->
    <title>34EF905D-A65B-4022-8DD2-0111E2D789FE</title>
    <desc>Created with sketchtool.</desc>
    <g id="Create-card" stroke="none" stroke-width="1" fill="none" fill-rule="evenodd">
        <g id="Moove---Create-card---3.3" transform="translate(-1260.000000, -301.000000)">
            <g id="Group-2" transform="translate(85.000000, 16.000000)">
                <g id="Group-7" transform="translate(0.000000, 26.000000)">
                    <g id="card/moove/3---git-copy-4-card/action/feature/gitlab" transform="translate(920.000000, 248.000000)">
                        <g id="Group" transform="translate(249.500000, 9.000000)">
                            <rect id="Rectangle" x="0" y="0" width="13" height="13"></rect>
                            <path d="M6.5,9 C7.05228475,9 7.5,9.44771525 7.5,10 C7.5,10.5522847 7.05228475,11 6.5,11 C5.94771525,11 5.5,10.5522847 5.5,10 C5.5,9.44771525 5.94771525,9 6.5,9 Z M6.5,5.5 C7.05228475,5.5 7.5,5.94771525 7.5,6.5 C7.5,7.05228475 7.05228475,7.5 6.5,7.5 C5.94771525,7.5 5.5,7.05228475 5.5,6.5 C5.5,5.94771525 5.94771525,5.5 6.5,5.5 Z M6.5,2 C7.05228475,2 7.5,2.44771525 7.5,3 C7.5,3.55228475 7.05228475,4 6.5,4 C5.94771525,4 5.5,3.55228475 5.5,3 C5.5,2.44771525 5.94771525,2 6.5,2 Z" id="Combined-Shape" fill="#C3C7F3"></path>
                        </g>
                    </g>
                </g>
            </g>
        </g>
    </g>
</svg>